# xmcd
#
# Track frame offsets: 
#        150
#        16659
#        32237
#        50568
#        77884
#        90657
#        103147
#        121127
#        137547
#        162397
#        179218
#        194445
#        222201
#        234449
#
# Disc length: 3228 seconds
#
# Revision: 0
# Processed by: cddbd v1.5.2PL0 Copyright (c) Steve Scherf et al.
# Submitted via: ExactAudioCopy v0.99pb5
#
DISCID=bf0c9a0e
DTITLE=Rick L. Blues - Good Luck On My Side
DYEAR=2012
DGENRE=Blues
TTITLE0=Well Dressed Man
TTITLE1=Magic On 2Nd Ave.
TTITLE2=Long Legged Woman
TTITLE3=My Whole Farm's Got The Blues
TTITLE4=Cool Cat Swing
TTITLE5=She Don't Need To Talk
TTITLE6=Good Luck On My Side
TTITLE7=Santa Will Never Die
TTITLE8=Budos Blues
TTITLE9=She Makes Me Dizzy
TTITLE10=Belle Roots 5
TTITLE11=4U
TTITLE12=Lucky Boogie
TTITLE13=Paris 21 h
EXTD=
EXTT0=
EXTT1=
EXTT2=
EXTT3=
EXTT4=
EXTT5=
EXTT6=
EXTT7=
EXTT8=
EXTT9=
EXTT10=
EXTT11=
EXTT12=
EXTT13=
PLAYORDER=
